<?xml version="1.0" encoding="UTF-8"?>
<svg xmlns="http://www.w3.org/2000/svg" width="1400" height="900" viewBox="0 0 1400 900" role="img" aria-label="Single monitor showing a FluxLinux desktop" style="background: transparent;">
  <defs>
    <!-- Background -->
    <radialGradient id="bg" cx="45%" cy="22%" r="90%">
      <stop offset="0%" stop-color="#1f7cff" stop-opacity="0.16"/>
      <stop offset="45%" stop-color="#7c3aed" stop-opacity="0.10"/>
      <stop offset="100%" stop-color="#0b0f18" stop-opacity="0"/>
    </radialGradient>

    <!-- Bezel -->
    <linearGradient id="bezel" x1="0" y1="0" x2="0" y2="1">
      <stop offset="0%" stop-color="#1c2436"/>
      <stop offset="55%" stop-color="#0f172a"/>
      <stop offset="100%" stop-color="#070b14"/>
    </linearGradient>

    <!-- Inner frame -->
    <linearGradient id="frame" x1="0" y1="0" x2="0" y2="1">
      <stop offset="0%" stop-color="#0b1220"/>
      <stop offset="100%" stop-color="#050812"/>
    </linearGradient>

    <!-- Screen wallpaper -->
    <linearGradient id="wall" x1="0" y1="0" x2="1" y2="1">
      <stop offset="0%" stop-color="#49c5ff"/>
      <stop offset="48%" stop-color="#3b5bff"/>
      <stop offset="100%" stop-color="#7c3aed"/>
    </linearGradient>

    <!-- Stand metal -->
    <linearGradient id="metal" x1="0" y1="0" x2="0" y2="1">
      <stop offset="0%" stop-color="#eef3f8"/>
      <stop offset="45%" stop-color="#cfd7e0"/>
      <stop offset="100%" stop-color="#b2bcc7"/>
    </linearGradient>
    <linearGradient id="metalEdge" x1="0" y1="0" x2="1" y2="0">
      <stop offset="0%" stop-color="#ffffff" stop-opacity="0.55"/>
      <stop offset="20%" stop-color="#ffffff" stop-opacity="0.05"/>
      <stop offset="80%" stop-color="#000000" stop-opacity="0.10"/>
      <stop offset="100%" stop-color="#000000" stop-opacity="0.18"/>
    </linearGradient>

    <!-- Soft drop shadow -->
    <filter id="drop" x="-25%" y="-25%" width="150%" height="170%">
      <feDropShadow dx="0" dy="20" stdDeviation="18" flood-color="#000000" flood-opacity="0.55"/>
    </filter>

    <!-- Small shadow -->
    <filter id="soft" x="-25%" y="-25%" width="150%" height="170%">
      <feDropShadow dx="0" dy="10" stdDeviation="10" flood-color="#000000" flood-opacity="0.35"/>
    </filter>

    <!-- Inner shadow for screen -->
    <filter id="innerShadow" x="-20%" y="-20%" width="140%" height="140%">
      <feOffset dx="0" dy="2"/>
      <feGaussianBlur stdDeviation="3" result="blur"/>
      <feComposite in="blur" in2="SourceAlpha" operator="arithmetic" k2="-1" k3="1" result="inner"/>
      <feColorMatrix in="inner" type="matrix" values="0 0 0 0 0                 0 0 0 0 0                 0 0 0 0 0                 0 0 0 .55 0"/>
      <feComposite in2="SourceGraphic" operator="over"/>
    </filter>

    <!-- Subtle grain -->
    <filter id="grain">
      <feTurbulence type="fractalNoise" baseFrequency="0.85" numOctaves="2" stitchTiles="stitch"/>
      <feColorMatrix type="matrix" values="0 0 0 0 0                 0 0 0 0 0                 0 0 0 0 0                 0 0 0 .10 0"/>
    </filter>

    <!-- Glass highlight -->
    <linearGradient id="glass" x1="0" y1="0" x2="1" y2="1">
      <stop offset="0%" stop-color="#ffffff" stop-opacity="0.22"/>
      <stop offset="22%" stop-color="#ffffff" stop-opacity="0.06"/>
      <stop offset="55%" stop-color="#ffffff" stop-opacity="0.00"/>
    </linearGradient>

    <!-- Clip the screen area -->
    <clipPath id="clipScreen">
      <rect x="230" y="140" width="940" height="540" rx="24"/>
    </clipPath>
  </defs>

  <!-- Background -->
  
  

  <!-- Monitor + stand -->
  <g filter="url(#drop)">
    <!-- Bezel shell -->
    <rect x="180" y="80" width="1040" height="680" rx="44" fill="url(#bezel)"/>

    <!-- Bezel “edge” sheen -->
    <rect x="180" y="80" width="1040" height="680" rx="44" fill="url(#metalEdge)" opacity="0.22"/>

    <!-- Inner frame -->
    <rect x="210" y="110" width="980" height="620" rx="34" fill="url(#frame)"/>

    <!-- Screen -->
    <rect x="230" y="140" width="940" height="540" rx="24" fill="url(#wall)" filter="url(#innerShadow)"/>

    <!-- Screen content -->
    <g clip-path="url(#clipScreen)">
      <!-- Soft blobs (wallpaper depth) -->
      <g opacity="0.55">
        <circle cx="420" cy="260" r="210" fill="#ffffff" opacity="0.18"/>
        <circle cx="780" cy="240" r="190" fill="#93c5fd" opacity="0.22"/>
        <circle cx="940" cy="420" r="240" fill="#a78bfa" opacity="0.18"/>
        <circle cx="520" cy="520" r="180" fill="#34d399" opacity="0.12"/>
      </g>

      <!-- Top bar -->
      <rect x="230" y="140" width="940" height="52" rx="26" fill="#0b1220" opacity="0.32"/>
      <!-- Window controls -->
      <circle cx="260" cy="166" r="7" fill="#ffffff" opacity="0.78"/>
      <circle cx="283" cy="166" r="7" fill="#ffffff" opacity="0.52"/>
      <circle cx="306" cy="166" r="7" fill="#ffffff" opacity="0.36"/>

      <!-- Center title -->
      <text x="700" y="173" text-anchor="middle" font-family="Inter, system-ui, -apple-system, Segoe UI, Roboto, Arial, sans-serif" font-size="16" font-weight="700" fill="#ffffff" opacity="0.86">
        FluxLinux
      </text>

      <!-- App window -->
      <g filter="url(#soft)">
        <rect x="330" y="250" width="420" height="300" rx="22" fill="#ffffff" opacity="0.92"/>
        <rect x="330" y="250" width="420" height="56" rx="22" fill="#0b1220" opacity="0.10"/>
      </g>

      <!-- Window content lines -->
      <g fill="#0b1220" opacity="0.55">
        <rect x="360" y="330" width="260" height="14" rx="7"/>
        <rect x="360" y="358" width="320" height="12" rx="6"/>
        <rect x="360" y="382" width="290" height="12" rx="6"/>
        <rect x="360" y="406" width="250" height="12" rx="6"/>
        <rect x="360" y="448" width="200" height="12" rx="6"/>
        <rect x="360" y="472" width="310" height="12" rx="6"/>
        <rect x="360" y="496" width="280" height="12" rx="6"/>
      </g>

      <!-- Dock -->
      <rect x="520" y="622" width="360" height="38" rx="19" fill="#0b1220" opacity="0.28"/>
      <g>
        <circle cx="555" cy="641" r="9" fill="#ffffff" opacity="0.75"/>
        <circle cx="590" cy="641" r="9" fill="#ffffff" opacity="0.55"/>
        <circle cx="625" cy="641" r="9" fill="#ffffff" opacity="0.45"/>
        <circle cx="660" cy="641" r="9" fill="#ffffff" opacity="0.70"/>
        <circle cx="695" cy="641" r="9" fill="#ffffff" opacity="0.35"/>
        <circle cx="730" cy="641" r="9" fill="#ffffff" opacity="0.50"/>
        <circle cx="765" cy="641" r="9" fill="#ffffff" opacity="0.40"/>
        <circle cx="800" cy="641" r="9" fill="#ffffff" opacity="0.60"/>
        <circle cx="835" cy="641" r="9" fill="#ffffff" opacity="0.42"/>
      </g>

      <!-- Grain + glass -->
      <rect x="230" y="140" width="940" height="540" fill="#000" opacity="0.06" filter="url(#grain)"/>
      <path d="M230 140 h940 v220 c-320 -70 -540 -190 -940 -60 z" fill="url(#glass)"/>
    </g>

    <!-- Bottom chin / logo -->
    <rect x="640" y="700" width="120" height="22" rx="11" fill="#ffffff" opacity="0.10"/>
    <text x="700" y="716" text-anchor="middle" font-family="Inter, system-ui, -apple-system, Segoe UI, Roboto, Arial, sans-serif" font-size="12" font-weight="700" fill="#ffffff" opacity="0.55">
      FLUX
    </text>
  </g>

  <!-- Stand -->
  <g filter="url(#soft)">
    <!-- Neck -->
    <path d="M650 760 C650 720 750 720 750 760 L750 835 C750 860 650 860 650 835 Z" fill="url(#metal)"/>
    <!-- Neck edge -->
    <path d="M650 760 C650 720 750 720 750 760" fill="none" stroke="#ffffff" stroke-opacity="0.35" stroke-width="8" stroke-linecap="round"/>

    <!-- Base -->
    <path d="M520 842 C610 812 790 812 880 842 L910 852 C930 860 925 890 905 894              C820 910 580 910 495 894 C475 890 470 860 490 852 Z" fill="url(#metal)"/>
    <!-- Base edge -->
    <path d="M520 842 C610 812 790 812 880 842" fill="none" stroke="#ffffff" stroke-opacity="0.35" stroke-width="8" stroke-linecap="round"/>
    <path d="M490 852 L910 852" stroke="#000" stroke-opacity="0.12" stroke-width="10" stroke-linecap="round"/>
  </g>

  <!-- Desk shadow -->
  <ellipse cx="700" cy="892" rx="420" ry="38" fill="#000" opacity="0.35"/>
</svg>