<svg xmlns="http://www.w3.org/2000/svg" width="1200" height="700" viewBox="0 0 1200 700">
  <defs>
    <linearGradient id="bg" x1="0" y1="0" x2="1" y2="1">
      <stop offset="0" stop-color="#1677ff" stop-opacity="0.18"></stop>
      <stop offset="1" stop-color="#7c3aed" stop-opacity="0.14"></stop>
    </linearGradient>
  </defs>
  <rect width="1200" height="700" rx="40" fill="#ffffff"></rect>
  <rect x="30" y="30" width="1140" height="640" rx="32" fill="url(#bg)"></rect>
  <g fill="#0b1220" fill-opacity="0.10">
    <rect x="80" y="110" width="520" height="28" rx="14"></rect>
    <rect x="80" y="160" width="440" height="20" rx="10"></rect>
    <rect x="80" y="200" width="360" height="20" rx="10"></rect>
    <rect x="80" y="260" width="180" height="46" rx="23"></rect>
    <rect x="280" y="260" width="180" height="46" rx="23"></rect>
  </g>
  <g>
    <rect x="690" y="120" width="420" height="520" rx="28" fill="#0b1220" fill-opacity="0.08"></rect>
    <rect x="720" y="160" width="360" height="36" rx="18" fill="#0b1220" fill-opacity="0.12"></rect>
    <rect x="720" y="220" width="300" height="22" rx="11" fill="#0b1220" fill-opacity="0.10"></rect>
    <rect x="720" y="260" width="280" height="22" rx="11" fill="#0b1220" fill-opacity="0.10"></rect>
    <rect x="720" y="320" width="360" height="250" rx="24" fill="#ffffff" fill-opacity="0.65"></rect>
  </g>
</svg>
